<svg xmlns="http://www.w3.org/2000/svg" width="174.511" height="42.238" viewBox="0 0 174.511 42.238">
  <defs>
    <style>
      .cls-1 {
        fill: #2c2f8f;
      }

      .cls-2 {
        fill: #fc0002;
      }

      .cls-3 {
        fill: #188f3a;
      }

      .cls-4 {
        fill: #fff;
      }

      .cls-5 {
        fill: #010101;
        font-size: 25px;
        font-family: SegoeUI-Bold, Segoe UI;
        font-weight: 700;
      }
    </style>
  </defs>
  <g id="Group_493" data-name="Group 493" transform="translate(-33.489 -23.762)">
    <g id="Group_2" data-name="Group 2" transform="translate(33.489 23.762)">
      <g id="Group_1" data-name="Group 1">
        <path id="Path_1" data-name="Path 1" class="cls-1" d="M922.9,486.257l.083,28.527L894.89,528.228Z" transform="translate(-894.89 -486.254)"/>
        <path id="Path_2" data-name="Path 2" class="cls-2" d="M894.76,486.253l.062,28.554,28.039,13.42Z" transform="translate(-866.746 -486.253)"/>
        <path id="Path_3" data-name="Path 3" class="cls-3" d="M951.017,540.3H894.934l28.014-13.438Z" transform="translate(-894.903 -498.33)"/>
      </g>
      <path id="Path_4" data-name="Path 4" class="cls-4" d="M21.484-4a8.937,8.937,0,0,1-2.865,6.912A11.016,11.016,0,0,1,10.872,5.54q-.612,0-2.476-.056-1.919-.056-2.559-.056Q3.25,5.429.8,5.54.58,5.54.58,5.151.58,4.8.8,4.775a8.029,8.029,0,0,0,1.766-.369,1.641,1.641,0,0,0,.855-.619,2.743,2.743,0,0,0,.243-1.363V-10.607a2.892,2.892,0,0,0-.229-1.356A1.58,1.58,0,0,0,2.6-12.6,7.777,7.777,0,0,0,.8-12.971q-.223,0-.223-.389T.8-13.75q1.627.111,5.035.111.64,0,2.559-.042,1.864-.042,2.476-.042A10.841,10.841,0,0,1,18.556-11,9.126,9.126,0,0,1,21.484-4Zm-3.06,0a9.3,9.3,0,0,0-2.163-6.293,6.855,6.855,0,0,0-5.417-2.51h-.083l-2.615.056Q6.5-12.693,6.5-11.135V2.953A1.427,1.427,0,0,0,8.146,4.539l2.615.083a7.033,7.033,0,0,0,5.452-2.469A8.883,8.883,0,0,0,18.424-4Z" transform="translate(17.988 31.474)"/>
    </g>
    <text id="igital_Focus" data-name="igital Focus" class="cls-5" transform="translate(141 60)"><tspan x="-66.638" y="0">igital Focus</tspan></text>
  </g>
</svg>
